<svg xmlns="http://www.w3.org/2000/svg" viewBox="0 0 32 32" width="32" height="32">
  <!-- Background -->
  <rect width="32" height="32" rx="4" fill="#283044"/>
  
  <!-- Storage building outline -->
  <rect x="4" y="8" width="24" height="16" rx="1" fill="none" stroke="#EBF5EE" stroke-width="1.5"/>
  
  <!-- Storage unit doors/sections -->
  <line x1="8" y1="8" x2="8" y2="24" stroke="#EBF5EE" stroke-width="1"/>
  <line x1="12" y1="8" x2="12" y2="24" stroke="#EBF5EE" stroke-width="1"/>
  <line x1="16" y1="8" x2="16" y2="24" stroke="#EBF5EE" stroke-width="1"/>
  <line x1="20" y1="8" x2="20" y2="24" stroke="#EBF5EE" stroke-width="1"/>
  <line x1="24" y1="8" x2="24" y2="24" stroke="#EBF5EE" stroke-width="1"/>
  
  <!-- Horizontal dividers -->
  <line x1="4" y1="14" x2="28" y2="14" stroke="#EBF5EE" stroke-width="0.8"/>
  <line x1="4" y1="18" x2="28" y2="18" stroke="#EBF5EE" stroke-width="0.8"/>
  
  <!-- Door handles -->
  <circle cx="6" cy="12" r="0.8" fill="#78A1BB"/>
  <circle cx="10" cy="12" r="0.8" fill="#78A1BB"/>
  <circle cx="14" cy="12" r="0.8" fill="#78A1BB"/>
  <circle cx="18" cy="12" r="0.8" fill="#78A1BB"/>
  <circle cx="22" cy="12" r="0.8" fill="#78A1BB"/>
  <circle cx="26" cy="12" r="0.8" fill="#78A1BB"/>
  
  <!-- Roof line -->
  <path d="M2 8 L16 4 L30 8" fill="none" stroke="#EBF5EE" stroke-width="1.5" stroke-linecap="round"/>
</svg>